<?xml version="1.0" standalone="no"?>
<!DOCTYPE svg PUBLIC "-//W3C//DTD SVG 20010904//EN"
 "http://www.w3.org/TR/2001/REC-SVG-20010904/DTD/svg10.dtd">
<svg version="1.0" xmlns="http://www.w3.org/2000/svg"
 width="512.000000pt" height="512.000000pt" viewBox="0 0 512.000000 512.000000"
 preserveAspectRatio="xMidYMid meet">
<metadata>
Created by potrace 1.14, written by Peter Selinger 2001-2017
</metadata>
<g transform="translate(0.000000,512.000000) scale(0.100000,-0.100000)"
fill="#000000" stroke="none">
<path d="M2372 5089 c-396 -33 -836 -212 -1138 -464 -467 -390 -729 -908 -770
-1525 -6 -91 -10 -107 -29 -122 -36 -28 -55 -80 -55 -147 l0 -61 -67 0 c-110
0 -196 -51 -247 -145 -21 -40 -21 -46 -21 -610 l0 -570 29 -53 c50 -89 128
-132 241 -132 l63 0 4 -74 c4 -80 18 -110 72 -150 26 -20 40 -21 310 -21 l283
0 49 30 c61 38 110 116 119 189 3 28 5 400 3 826 l-3 775 -31 54 c-37 65 -91
107 -163 123 l-53 13 7 70 c38 391 237 781 528 1036 214 187 454 307 739 371
91 20 129 23 323 23 190 0 233 -4 318 -22 426 -96 771 -331 1012 -688 131
-196 234 -488 252 -714 l6 -76 -54 -13 c-72 -16 -126 -57 -163 -123 l-31 -54
-3 -775 c-2 -426 0 -798 3 -826 9 -73 58 -151 119 -189 l49 -30 283 0 c270 0
284 1 310 21 54 40 68 70 72 150 l4 74 63 0 c113 0 191 43 241 132 l29 53 0
570 c0 569 0 570 -22 611 -51 95 -119 136 -235 142 l-78 4 0 60 c0 66 -20 118
-54 146 -20 15 -23 33 -34 167 -23 282 -90 532 -206 770 -329 673 -975 1114
-1721 1175 -143 11 -203 11 -353 -1z m-2002 -3074 l0 -585 -45 0 c-55 0 -90
15 -104 47 -8 16 -11 184 -11 544 l0 521 29 29 c25 24 37 29 80 29 l51 0 0
-585z m4511 556 l29 -29 0 -521 c0 -360 -3 -528 -11 -544 -14 -32 -49 -47
-104 -47 l-45 0 0 585 0 585 51 0 c43 0 55 -5 80 -29z"/>
<path d="M2390 4269 c-240 -27 -503 -128 -705 -270 -106 -75 -291 -256 -301
-293 -8 -32 12 -83 37 -96 48 -26 71 -14 184 98 318 313 727 450 1153 386 288
-42 537 -170 757 -386 113 -112 136 -124 184 -98 25 13 45 64 37 96 -10 37
-195 218 -301 293 -303 214 -680 311 -1045 270z"/>
<path d="M2354 3926 c-169 -32 -365 -117 -494 -215 -36 -27 -105 -90 -153
-140 -79 -82 -87 -94 -87 -129 0 -50 32 -82 82 -82 32 0 43 8 94 66 214 244
545 377 857 344 258 -27 449 -121 644 -317 111 -113 131 -121 179 -79 41 35
38 82 -8 138 -111 135 -237 233 -403 314 -168 81 -274 106 -475 110 -111 2
-188 -1 -236 -10z"/>
<path d="M2406 3594 c-268 -48 -513 -245 -619 -498 -65 -154 -67 -181 -67
-906 0 -399 4 -680 10 -720 46 -289 243 -540 508 -649 l67 -28 3 -146 3 -147
-199 0 c-197 0 -199 0 -253 -27 -60 -31 -112 -92 -129 -151 -5 -20 -10 -88
-10 -150 0 -112 0 -114 29 -143 l29 -29 782 0 782 0 29 29 c29 29 29 31 29
143 0 174 -38 255 -144 304 -48 22 -62 24 -249 24 l-198 0 3 147 3 146 67 28
c265 109 462 360 508 649 6 39 10 319 10 711 0 718 -3 754 -64 905 -45 111
-95 184 -191 280 -196 196 -463 278 -739 228z m321 -201 c116 -77 220 -202
274 -332 30 -71 59 -198 59 -256 l0 -35 -143 0 c-141 0 -144 -1 -167 -25 -34
-37 -33 -90 4 -121 26 -23 34 -24 167 -24 l139 0 0 -80 0 -80 -130 0 c-96 0
-139 -4 -159 -15 -37 -19 -54 -64 -39 -105 17 -50 50 -60 198 -60 l130 0 0
-80 0 -80 -139 0 c-133 0 -141 -1 -167 -24 -37 -31 -38 -84 -4 -121 23 -24 26
-25 167 -25 l143 0 0 -80 0 -80 -585 0 -585 0 0 80 0 80 228 0 229 0 23 25
c34 37 33 90 -4 121 -27 24 -30 24 -252 24 l-224 0 0 80 0 80 215 0 c239 0
264 5 283 60 8 21 8 39 0 60 -19 55 -44 60 -283 60 l-215 0 0 80 0 80 224 0
c222 0 225 0 252 24 37 31 38 84 4 121 l-23 25 -230 0 -229 0 7 53 c11 91 27
150 60 222 100 217 276 345 535 389 14 3 60 2 104 0 70 -4 85 -9 133 -41z
m499 -1865 c-30 -284 -228 -510 -507 -583 -82 -22 -243 -22 -324 0 -194 52
-351 181 -437 360 -38 79 -67 190 -68 253 l0 32 671 0 672 0 -7 -62z m-176
-1217 c5 -11 10 -47 10 -80 l0 -61 -585 0 -585 0 0 45 c0 48 20 99 42 108 7 3
259 6 560 6 531 1 548 0 558 -18z"/>
</g>
</svg>
