<svg xmlns="http://www.w3.org/2000/svg"  viewBox="0 0 100 100" width="100px" height="100px"><circle cx="13" cy="29" r="2" fill="#ee3e54"/><circle cx="77" cy="13" r="1" fill="#f1bc19"/><circle cx="50" cy="50" r="37" fill="#fce0a2"/><circle cx="83" cy="15" r="4" fill="#f1bc19"/><circle cx="87" cy="24" r="2" fill="#ee3e54"/><circle cx="81" cy="76" r="2" fill="#fbcd59"/><circle cx="15" cy="63" r="4" fill="#fbcd59"/><circle cx="25" cy="87" r="2" fill="#ee3e54"/><circle cx="19.5" cy="54.5" r="2.5" fill="#fff"/><circle cx="21" cy="67" r="1" fill="#f1bc19"/><circle cx="80" cy="34" r="1" fill="#fff"/><circle cx="50" cy="50" r="24.25" fill="#ea5167"/><path fill="#472b29" d="M50,74.95c-13.758,0-24.95-11.192-24.95-24.95S36.242,25.05,50,25.05S74.95,36.242,74.95,50 S63.758,74.95,50,74.95z M50,26.45c-12.985,0-23.55,10.564-23.55,23.55S37.015,73.55,50,73.55S73.55,62.986,73.55,50 S62.985,26.45,50,26.45z"/><path fill="#472b29" d="M70.135,46.635c-0.235,0-0.444-0.167-0.49-0.406c-0.49-2.575-1.472-4.996-2.917-7.196 c-0.151-0.231-0.087-0.541,0.144-0.692c0.23-0.151,0.54-0.088,0.692,0.144c1.518,2.31,2.548,4.853,3.063,7.558 c0.052,0.271-0.126,0.533-0.397,0.585C70.197,46.632,70.166,46.635,70.135,46.635z"/><path fill="#472b29" d="M50,71c-11.579,0-21-9.421-21-21s9.421-21,21-21c5.525,0,10.742,2.128,14.688,5.992 c0.197,0.193,0.201,0.51,0.008,0.707c-0.191,0.197-0.51,0.201-0.707,0.007C60.23,32.027,55.262,30,50,30c-11.028,0-20,8.972-20,20 s8.972,20,20,20s20-8.972,20-20c0-0.276,0.224-0.5,0.5-0.5S71,49.724,71,50C71,61.579,61.579,71,50,71z"/><polygon fill="#fff" points="46,56.5 57,49.717 46,43.5"/><path fill="#fff" d="M50,38.13c6.528,0,11.87,5.313,11.87,11.87S56.557,61.87,50,61.87	S38.13,56.557,38.13,50S43.472,38.13,50,38.13 M50,37c-7.178,0-13,5.822-13,13s5.822,13,13,13s13-5.822,13-13S57.178,37,50,37L50,37	z"/></svg>